<?xml version="1.0" standalone="no"?>
<!DOCTYPE svg PUBLIC "-//W3C//DTD SVG 1.1//EN" "http://www.w3.org/Graphics/SVG/1.1/DTD/svg11.dtd" >
<svg xmlns="http://www.w3.org/2000/svg">
<metadata>
This is a custom SVG webfont generated by Font Squirrel.
Copyright   : Copyright c Derek Vogelpohl 2001 All rights reserved
</metadata>
<defs>
<font id="webfontdUkC2vnN" horiz-adv-x="444" >
<font-face units-per-em="2048" ascent="1638" descent="-410" />
<missing-glyph horiz-adv-x="892" />
<glyph unicode=" "  horiz-adv-x="892" />
<glyph unicode="&#x09;" horiz-adv-x="892" />
<glyph unicode="&#xa0;" horiz-adv-x="892" />
<glyph unicode="!" horiz-adv-x="516" d="M348 1434h-180l37 -1041h106zM383 125q0 53 -36 89t-89 36t-89 -36t-36 -89t36 -89t89 -36t89 36t36 89z" />
<glyph unicode="&#x22;" horiz-adv-x="946" d="M813 1505h-250l78 -491q10 -47 47 -47t47 47zM383 1505h-250l78 -491q10 -47 47 -47t47 47z" />
<glyph unicode="#" horiz-adv-x="1196" d="M1065 608v144h-225l20 215h205v143h-193l19 215h-143l-19 -215h-215l18 215h-143l-18 -215h-238v-143h225l-20 -215h-205v-144h193l-19 -215h144l18 215h215l-18 -215h143l18 215h238zM717 967l-21 -215h-215l21 215h215z" />
<glyph unicode="$" horiz-adv-x="1411" d="M1280 387q0 201 -150 301q-104 66 -335 103v491q55 -10 101 -25.5t81 -42.5q88 -63 88 -163h178q0 172 -141 288q-127 100 -307 125v148h-179v-148q-92 -12 -167.5 -43.5t-139.5 -81.5q-141 -117 -141 -288q0 -195 133 -297q49 -35 127 -63.5t188 -45.5v-495 q-61 6 -112 21t-90 42q-102 66 -103 174h-178q0 -184 156 -297q129 -96 327 -121v-149h179v149q201 25 329 121q156 115 156 297zM616 819q-123 25 -182 66q-86 57 -86 166q0 100 88 163q35 27 80 42.5t100 25.5v-463zM1100 387q0 -203 -305 -237v466q139 -25 202 -59 q103 -53 103 -170z" />
<glyph unicode="%" horiz-adv-x="1787" d="M1655 322q0 150 -104.5 254t-254.5 104t-254 -104.5t-104 -253.5q0 -150 104.5 -254.5t253.5 -104.5q150 0 254.5 104.5t104.5 254.5zM1602 1434h-179l-1237 -1434h179zM850 1110q0 147 -107 254q-104 104 -251 104q-150 0 -256 -104q-102 -102 -103 -254 q0 -152 103 -254q106 -104 256 -104q147 0 251 104q107 107 107 254zM1511 322q0 -90 -61 -152q-63 -63 -154 -64q-88 0 -151.5 63.5t-63.5 152.5q0 90 64 153q61 61 151 62q92 0 153.5 -61.5t61.5 -153.5zM707 1110q0 -88 -63.5 -151.5t-151.5 -63.5q-86 0 -154 63 q-61 63 -62 152q0 90 62 152q63 63 154 63q90 0 151 -61q64 -64 64 -154z" />
<glyph unicode="&#x26;" horiz-adv-x="1363" d="M1231 0l-158 244q16 23 28.5 46t22.5 46h-2l86 194l-164 72l-81 -186l-252 385q72 45 117.5 79.5t68.5 57.5q82 88 82 213q0 133 -98 225q-90 92 -230 92q-66 0 -123 -22.5t-104 -69.5q-92 -96 -92 -225q0 -76 43 -158q6 -12 27.5 -47t62.5 -94q-158 -100 -229 -184 q-102 -117 -103 -269q0 -176 127 -307q129 -129 307 -129q213 0 383 141l66 -104h215zM799 1149q0 -80 -80 -129l-105 -68l-77 119q-27 39 -27 82q0 57 40 98t99 41t104.5 -42t45.5 -101zM852 256q-123 -115 -285 -115q-109 0 -180 78q-76 76 -76 184q0 98 82 179 q23 23 65 52l103 71z" />
<glyph unicode="'" horiz-adv-x="516" d="M383 1505h-250l78 -491q10 -47 47 -47t47 47z" />
<glyph unicode="(" horiz-adv-x="659" d="M526 -180q-119 209 -168 387q-47 178 -47 420t47 420q23 88 66 184t102 203h-106q-158 -193 -223 -377q-63 -176 -64 -430q0 -250 64 -432q33 -90 88 -183.5t135 -191.5h106z" />
<glyph unicode=")" horiz-adv-x="659" d="M526 627q0 254 -63 430q-66 184 -223 377h-107q59 -106 102.5 -202.5t65.5 -184.5q47 -178 47 -420q0 -246 -49 -420q-47 -176 -166 -387h107q80 98 135 191t88 184q63 182 63 432z" />
<glyph unicode="*" horiz-adv-x="956" d="M823 852l-200 115l200 116l-71 127l-201 -118v233h-143v-233l-203 118l-72 -127l203 -116l-203 -115l72 -127l203 119v-236h143v236l201 -119z" />
<glyph unicode="+" horiz-adv-x="980" d="M850 465v143h-287v287h-143v-287h-287v-143h287v-287h143v287h287z" />
<glyph unicode="," horiz-adv-x="516" d="M383 250h-250l78 -490q10 -47 47 -47t47 47z" />
<glyph unicode="-" horiz-adv-x="980" d="M850 465v143h-717v-143h717z" />
<glyph unicode="." horiz-adv-x="516" d="M383 125q0 53 -36 89t-89 36t-89 -36t-36 -89t36 -89t89 -36t89 36t36 89z" />
<glyph unicode="/" horiz-adv-x="894" d="M809 1354l-170 61l-551 -1515l168 -62z" />
<glyph unicode="0" horiz-adv-x="1394" d="M1307 717q0 291 -156 508q-174 244 -455 243q-279 0 -452 -243q-78 -109 -117 -236t-39 -272q0 -293 156 -510q176 -244 452 -244q279 0 455 244q156 221 156 510zM1126 717q0 -221 -102 -381q-123 -193 -328 -193q-207 0 -325 193q-104 162 -105 381q0 217 105 381 q121 193 325 192q203 0 328 -192q102 -160 102 -381z" />
<glyph unicode="1" horiz-adv-x="1394" d="M924 0v1434h-179l-380 -381l114 -115l266 268v-1206h179z" />
<glyph unicode="2" horiz-adv-x="1394" d="M1235 0v178h-844q70 129 301 264l244 149q90 56 121 83q178 154 178 358q0 205 -172 326q-154 111 -367 110q-211 0 -360 -100q-176 -117 -176 -317h178q0 123 121 188q98 51 229 51q145 0 244 -55q123 -72 123 -203q0 -176 -232 -327l-215 -136l-215 -133 q-233 -182 -233 -436h1075z" />
<glyph unicode="3" horiz-adv-x="1394" d="M1245 430q0 266 -278 377q207 86 207 287q0 193 -164 288q-135 86 -338 86q-164 0 -285 -57q-150 -63 -197 -201l168 -61q49 141 314 141q125 0 209 -37q115 -49 114 -159q0 -94 -118 -154q-92 -45 -205 -45h-107v-178h107q145 0 260 -70q135 -80 135 -217 q0 -143 -131 -223q-106 -63 -264 -64q-279 0 -367 168l-155 -90q74 -131 225 -196q135 -61 297 -62q229 0 393 115q180 131 180 352z" />
<glyph unicode="4" horiz-adv-x="1394" d="M1270 287v178h-178v969h-154l-815 -969v-178h788v-287h181v287h178zM911 465h-598l598 702v-702z" />
<glyph unicode="5" horiz-adv-x="1394" d="M1255 502q0 229 -172 383q-170 154 -401 153q-186 0 -336 -100v315h731v181h-911v-697l170 -65q53 88 146 138t200 50q156 0 272 -100q123 -104 123 -258t-123 -258q-117 -100 -272 -101q-115 0 -219 62q-100 59 -148 166l-176 -45q63 -166 215 -265q147 -98 328 -98 q229 0 401 156q172 154 172 383z" />
<glyph unicode="6" horiz-adv-x="1394" d="M1290 506q0 227 -176 387q-166 152 -401 151q-272 0 -420 -206q29 186 129 309q115 143 291 143q188 0 301 -155l139 104q-172 229 -440 229q-279 0 -453 -243q-78 -109 -117 -236t-39 -272q0 -293 156 -510q176 -244 453 -244q231 0 401 154q176 158 176 389zM1110 504 q0 -158 -119 -258q-61 -51 -129.5 -77t-148.5 -26q-143 0 -260 109q-117 111 -117 252q0 158 108 258q111 104 269 104q80 0 148.5 -25.5t127.5 -74.5q121 -108 121 -262z" />
<glyph unicode="7" horiz-adv-x="1394" d="M1243 1253v181h-967v-181h760l-733 -1253h213z" />
<glyph unicode="8" horiz-adv-x="1394" d="M1270 430q0 266 -279 377q207 84 207 287q0 190 -162 288q-139 86 -340 86t-338 -86q-164 -98 -163 -288q0 -205 208 -287q-281 -111 -280 -377q0 -223 182 -352q162 -115 391 -115t394 115q180 129 180 352zM1020 1094q0 -96 -119 -154q-92 -45 -205 -45t-202 45 q-119 57 -119 154q0 111 112 159q82 37 209 37t211 -37q113 -48 113 -159zM1092 430q0 -143 -131 -223q-106 -63 -265 -64q-156 0 -262 64q-131 80 -131 223q0 137 133 217q115 70 260 70q147 0 260 -70q136 -80 136 -217z" />
<glyph unicode="9" horiz-adv-x="1394" d="M1290 717q0 145 -39 272t-116 236q-174 244 -455 243q-231 0 -401 -151q-174 -162 -175 -389q0 -225 175 -387q170 -152 401 -152q274 0 422 207q-31 -186 -129 -309q-119 -143 -293 -144q-184 0 -301 156l-139 -106q174 -229 440 -230q279 0 455 244q155 217 155 510z M1059 930q0 -156 -111 -260q-113 -102 -268 -103q-156 0 -276.5 102.5t-120.5 260.5t120 258q121 102 277 102q141 0 260 -108q119 -111 119 -252z" />
<glyph unicode=":" horiz-adv-x="516" d="M383 770q0 53 -36 89t-89 36t-89 -36t-36 -89t36 -89t89 -36t89 36t36 89zM383 125q0 53 -36 89t-89 36t-89 -36t-36 -89t36 -89t89 -36t89 36t36 89z" />
<glyph unicode=";" horiz-adv-x="516" d="M383 770q0 53 -36 89t-89 36t-89 -36t-36 -89t36 -89t89 -36t89 36t36 89zM383 250h-250l78 -490q10 -47 47 -47t47 47z" />
<glyph unicode="&#x37e;" horiz-adv-x="516" d="M383 770q0 53 -36 89t-89 36t-89 -36t-36 -89t36 -89t89 -36t89 36t36 89zM383 250h-250l78 -490q10 -47 47 -47t47 47z" />
<glyph unicode="&#x3c;" horiz-adv-x="944" d="M811 195l-526 342l526 344l-78 118l-600 -391v-143l600 -389z" />
<glyph unicode="=" horiz-adv-x="980" d="M850 627v143h-717v-143h717zM850 305v144h-717v-144h717z" />
<glyph unicode="&#x3e;" horiz-adv-x="944" d="M811 465v143l-600 391l-78 -118l526 -344l-526 -342l78 -119z" />
<glyph unicode="?" horiz-adv-x="909" d="M778 1139q0 131 -96 231q-90 98 -227 98t-229.5 -98t-92.5 -231h178q2 59 43 105t101 46q61 0 102 -46t41 -105q0 -96 -90 -174l-81 -68l-81 -68q-90 -90 -90 -215q0 -8 5 -62l15 -159h107q8 61 11 106.5t7 73.5q18 141 121 215l84 57l86 56q86 76 86 238zM455 125 q0 53 -36 89t-89 36t-89 -36t-36 -89t35.5 -89t89.5 -36q53 0 89 36t36 89z" />
<glyph unicode="@" horiz-adv-x="2127" d="M1997 537q0 385 -275 659q-272 272 -657 272q-387 0 -659.5 -272t-272.5 -659q0 -385 273 -658q274 -274 659 -274q127 0 262 41l-31 118q-111 -33 -231 -32q-334 0 -571 237q-236 236 -236 568q0 334 236 569q238 238 571 237q334 0 569.5 -235.5t235.5 -570.5 q0 -154 -80 -273q-92 -139 -236 -139q-63 0 -102 51t-39 117v6q0 6 2 16l53 625h-133l-12 -145q-104 172 -309 172q-180 0 -312 -144q-129 -141 -129 -325q0 -158 103 -277q104 -115 262 -115q207 0 340 173q0 -115 76 -197q74 -82 188 -82q199 0 330 174q125 162 125 363z M1300 563q0 -127 -96 -227q-100 -94 -225 -94q-117 0 -193 80q-78 78 -77 190q0 129 96 225.5t225 96.5q113 0 193 -80q77 -78 77 -191z" />
<glyph unicode="A" horiz-adv-x="1320" d="M1278 0l-522 1434h-191l-522 -1434h190l117 322h617l118 -322h193zM903 502h-487l243 669z" />
<glyph unicode="B" horiz-adv-x="1339" d="M1225 403q0 240 -252 320q217 88 217 307q0 172 -137 293q-133 111 -312 111h-608v-1434h645q178 0 312 113q135 114 135 290zM1010 1030q0 -100 -86 -164q-74 -59 -183 -59h-430v446h430q106 0 183 -57q86 -66 86 -166zM1047 403q0 -102 -86 -165q-78 -59 -183 -60h-467 v449h467q109 0 183 -60q86 -66 86 -164z" />
<glyph unicode="C" horiz-adv-x="1486" d="M1372 184l-129 123q-168 -164 -403 -164q-236 0 -404 168q-170 168 -170 406t170 405q168 168 404 168q238 0 403 -166l129 125q-219 219 -532 219q-311 0 -533 -221q-219 -223 -219 -530t219 -533q223 -221 533 -221q311 0 532 221z" />
<glyph unicode="D" horiz-adv-x="1501" d="M1386 717q0 295 -210 506q-209 211 -506 211h-537v-1434h537q297 0 506 209q210 211 210 508zM1208 717q0 -219 -157 -381q-162 -158 -381 -158h-359v1075h359q223 0 380.5 -157.5t157.5 -378.5z" />
<glyph unicode="E" horiz-adv-x="1267" d="M1137 0v178h-826v449h645v180h-645v446h826v181h-1004v-1434h1004z" />
<glyph unicode="F" horiz-adv-x="1206" d="M1137 1253v181h-1004v-1434h178v627h645v180h-645v446h826z" />
<glyph unicode="G" horiz-adv-x="1583" d="M1468 303v504h-628v-180h450v-267q-172 -217 -450 -217q-236 0 -404 168q-170 168 -170 406t170 405q168 168 404 168q135 0 257 -60.5t201 -168.5l148 102q-106 145 -266 225t-340 80q-311 0 -533 -221q-219 -223 -219 -530t219 -533q223 -221 533 -221q193 0 358.5 90 t269.5 250z" />
<glyph unicode="H" horiz-adv-x="1411" d="M1280 0v1434h-180v-627h-789v627h-178v-1434h178v627h789v-627h180z" />
<glyph unicode="I" d="M311 0v1434h-178v-1434h178z" />
<glyph unicode="J" horiz-adv-x="1085" d="M971 449v985h-543v-181h365v-804q0 -125 -90.5 -215.5t-215.5 -90.5q-168 0 -258 144l-159 -84q66 -111 177 -175.5t240 -64.5q199 0 340 143q144 142 144 343z" />
<glyph unicode="K" horiz-adv-x="1259" d="M1208 0l-565 868l565 566h-254l-643 -643v643h-178v-1434h178v537l203 202l481 -739h213z" />
<glyph unicode="L" horiz-adv-x="1026" d="M956 0v178h-645v1256h-178v-1434h823z" />
<glyph unicode="M" horiz-adv-x="1691" d="M1559 0v1434h-287l-426 -1172l-426 1172h-287v-1434h178v1208l441 -1208h190l438 1202v-1202h179z" />
<glyph unicode="N" horiz-adv-x="1411" d="M1280 0v1434h-180v-1112l-789 1112h-178v-1434h178v1110l789 -1110h180z" />
<glyph unicode="O" horiz-adv-x="1681" d="M1593 717q0 311 -221 532q-219 219 -532 219t-533 -219q-219 -223 -219 -532t219 -533q221 -221 533 -221q311 0 532 221.5t221 532.5zM1413 717q0 -238 -168 -406t-405 -168q-236 0 -404 168q-170 168 -170 406t170 405q168 168 404 168q238 0 405.5 -167.5 t167.5 -405.5z" />
<glyph unicode="P" horiz-adv-x="1259" d="M1190 1030q0 172 -137 293q-133 111 -312 111h-608v-1434h178v627h430q176 0 312 112q137 117 137 291zM1010 1030q0 -100 -86 -164q-74 -59 -183 -59h-430v446h430q106 0 183 -57q86 -66 86 -166z" />
<glyph unicode="Q" horiz-adv-x="1681" d="M1593 717q0 311 -221 532q-219 219 -532 219t-533 -219q-219 -223 -219 -532q0 -289 191 -500q193 -215 473 -248v-327h178v327q281 33 473 248q190 215 190 500zM1413 717q0 -215 -137 -373q-135 -160 -346 -194v208h-178v-208q-213 35 -346 194q-139 162 -140 373 q0 238 170 405q168 168 404 168q238 0 405.5 -167.5t167.5 -405.5z" />
<glyph unicode="R" horiz-adv-x="1331" d="M1333 0l-325 502q-90 137 -142 141q143 37 232 141q92 104 92 246q0 172 -137 293q-133 111 -312 111h-608v-1434h178v627h215q186 0 269 -125l325 -502h213zM1010 1030q0 -100 -86 -164q-74 -59 -183 -59h-430v446h430q106 0 183 -57q86 -66 86 -166z" />
<glyph unicode="S" horiz-adv-x="1376" d="M1262 387q0 254 -242 346l-449 92q-242 57 -241 226q0 121 125 188q51 25 108.5 38t124.5 13q131 0 234 -53q125 -63 125 -186h178q0 195 -176 313q-158 104 -361 104q-205 0 -360 -104q-178 -121 -178 -313q0 -262 243 -355l223 -45l224 -45q242 -55 241 -219 q0 -131 -139 -194q-104 -49 -254 -50q-147 0 -254 50q-141 63 -141 194h-178q0 -203 192 -321q168 -102 381 -103q213 0 379 100q195 123 195 324z" />
<glyph unicode="T" horiz-adv-x="1232" d="M1171 1253v181h-1110v-181h465v-1253h181v1253h464z" />
<glyph unicode="U" horiz-adv-x="1376" d="M1262 537v897h-181v-897q0 -160 -114 -279q-115 -115 -279 -115q-166 0 -280 115q-115 119 -115 279v897h-178v-897q0 -236 168 -404q170 -170 405 -170q236 0 406 170q168 168 168 404z" />
<glyph unicode="V" horiz-adv-x="1320" d="M1278 1434h-193l-426 -1172l-426 1172h-190l522 -1434h191z" />
<glyph unicode="W" horiz-adv-x="1916" d="M1874 1434h-186l-320 -1110l-315 1110h-187l-319 -1110l-318 1110h-186l410 -1434h186l319 1110l318 -1110h186z" />
<glyph unicode="X" horiz-adv-x="1337" d="M1284 0l-504 717l504 717h-221l-395 -560l-394 560h-223l506 -717l-506 -717h223l394 559l395 -559h221z" />
<glyph unicode="Y" horiz-adv-x="1318" d="M1276 1434h-223l-394 -560l-395 560h-221l526 -748v-686h181v686z" />
<glyph unicode="Z" horiz-adv-x="1376" d="M1262 0v178h-904l904 1075v181h-1147v-181h903l-903 -1075v-178h1147z" />
<glyph unicode="[" horiz-adv-x="694" d="M563 -180v180h-252v1253h252v181h-430v-1614h430z" />
<glyph unicode="\" horiz-adv-x="894" d="M809 -100l-553 1515l-168 -61l551 -1516z" />
<glyph unicode="]" horiz-adv-x="694" d="M563 -180v1614h-430v-181h250v-1253h-250v-180h430z" />
<glyph unicode="^" horiz-adv-x="993" d="M860 672l-293 653h-143l-291 -653l131 -60l232 523l233 -523z" />
<glyph unicode="_" horiz-adv-x="892" d="M893 0v143h-893v-143h893z" />
<glyph unicode="`" horiz-adv-x="550" d="M420 1219l-109 215h-178l178 -215h109z" />
<glyph unicode="a" horiz-adv-x="1368" d="M1235 0v1075h-180v-194q-160 229 -430 229q-229 0 -383 -172q-154 -170 -154 -401q0 -233 152 -400q156 -174 385 -174q268 0 430 230v-193h180zM1055 537q0 -162 -117 -279q-113 -115 -276 -115q-166 0 -281 115q-115 119 -115 279q0 84 29 151.5t86 126.5 q117 117 281 117q162 0 276 -117q117 -116 117 -278z" />
<glyph unicode="b" horiz-adv-x="1368" d="M1280 537q0 229 -156 401q-152 172 -383 172q-268 0 -430 -229v553h-178v-1434h178v193q164 -229 430 -230q231 0 385 174q154 169 154 400zM1100 537q0 -162 -117 -279q-113 -115 -276 -115q-166 0 -281 115q-115 119 -115 279q0 84 29 151.5t86 126.5q117 117 281 117 q162 0 276 -117q117 -116 117 -278z" />
<glyph unicode="c" horiz-adv-x="1230" d="M1116 190l-149 97q-125 -143 -305 -144q-166 0 -281 115q-115 119 -115 279q0 84 29 151.5t86 126.5q117 117 281 117q180 0 305 -144l149 97q-80 106 -200.5 165.5t-253.5 59.5q-238 0 -406 -168t-168 -405q0 -236 168 -404q170 -170 406 -170q133 0 253.5 60.5 t200.5 166.5z" />
<glyph unicode="d" horiz-adv-x="1368" d="M1235 0v1434h-180v-553q-160 229 -430 229q-229 0 -383 -172q-154 -170 -154 -401q0 -233 152 -400q156 -174 385 -174q268 0 430 230v-193h180zM1055 537q0 -162 -117 -279q-113 -115 -276 -115q-166 0 -281 115q-115 119 -115 279q0 84 29 151.5t86 126.5 q117 117 281 117q162 0 276 -117q117 -116 117 -278z" />
<glyph unicode="e" horiz-adv-x="1323" d="M1235 537q0 238 -168 405q-170 168 -405 168q-238 0 -406 -168t-168 -405q0 -236 168 -404q170 -170 406 -170q133 0 253.5 60.5t200.5 166.5l-149 97q-121 -143 -305 -144q-135 0 -246 86q-111 88 -137 220h948q8 41 8 88zM1044 627h-765q27 131 137 219q111 86 246 86 t243 -86q108 -84 139 -219z" />
<glyph unicode="f" horiz-adv-x="671" d="M602 1434q-59 35 -137 34q-113 0 -191 -77q-80 -78 -79 -191v-233h-107v-179h107v-1146h180v1146h178v179h-178v233q0 37 26.5 64.5t63.5 27.5q29 0 55 -20z" />
<glyph unicode="g" horiz-adv-x="1368" d="M1235 178v897h-180v-194q-72 104 -187 168q-115 61 -243 61q-227 0 -383 -172q-154 -170 -154 -401q0 -233 152 -400q160 -174 385 -174q127 0 243 64q115 63 187 166q0 -86 -28 -160t-83 -131q-111 -117 -282 -117q-184 0 -306 143l-137 -114q174 -209 443 -209 q231 0 405 170q168 167 168 403zM1055 537q0 -162 -117 -279q-113 -115 -276 -115q-166 0 -281 115q-115 119 -115 279q0 84 29 151.5t86 126.5q117 117 281 117q162 0 276 -117q117 -116 117 -278z" />
<glyph unicode="h" horiz-adv-x="1179" d="M1065 0v645q0 184 -121 322q-125 143 -309 143q-199 0 -324 -158v482h-178v-1434h178v645q0 119 84 203t203 84t203 -84t84 -203v-645h180z" />
<glyph unicode="i" d="M348 1343q0 53 -37 89t-90 36t-89 -35.5t-36 -89.5q0 -53 36 -88.5t89 -35.5t90 35.5t37 88.5zM311 0v1075h-178v-1075h178z" />
<glyph unicode="j" d="M348 1343q0 53 -37 89t-90 36t-89 -35.5t-36 -89.5q0 -53 36 -88.5t89 -35.5t90 35.5t37 88.5zM311 -125v1200h-178v-1200q0 -37 -26.5 -63.5t-63.5 -26.5q-33 0 -55 20l-82 -161q66 -39 137 -39q106 0 190 80q78 77 78 190z" />
<glyph unicode="k" horiz-adv-x="1116" d="M1065 0l-424 651l424 424h-254l-500 -500v859h-178v-1434h178v322l199 200l342 -522h213z" />
<glyph unicode="l" d="M311 0v1434h-178v-1434h178z" />
<glyph unicode="m" horiz-adv-x="1787" d="M1673 0v645q0 92 -29.5 174t-89.5 150q-127 141 -311 141q-227 0 -334 -209q-90 209 -293 209q-193 0 -305 -158v123h-178v-1075h178v645q0 111 70 199q74 88 182 88q109 0 182 -90q68 -84 68 -197v-645h180v645q0 115 70 199q70 88 180 88q111 0 182 -90q70 -86 70 -197 v-645h178z" />
<glyph unicode="n" horiz-adv-x="1179" d="M1065 0v645q0 184 -121 322q-125 143 -309 143q-199 0 -324 -158v123h-178v-1075h178v645q0 119 84 203t203 84t203 -84t84 -203v-645h180z" />
<glyph unicode="o" horiz-adv-x="1323" d="M1235 537q0 238 -168 405q-170 168 -405 168q-238 0 -406 -168t-168 -405q0 -236 168 -404q170 -170 406 -170q231 0 405 170q168 168 168 404zM1055 537q0 -162 -117 -279q-113 -115 -276 -115q-166 0 -281 115q-115 119 -115 279q0 84 29 151.5t86 126.5 q117 117 281 117q162 0 276 -117q117 -116 117 -278z" />
<glyph unicode="p" horiz-adv-x="1368" d="M1280 537q0 229 -156 401q-152 172 -383 172q-268 0 -430 -229v194h-178v-1433h178v551q164 -229 430 -230q231 0 385 174q154 169 154 400zM1100 537q0 -162 -117 -279q-113 -115 -276 -115q-166 0 -281 115q-115 119 -115 279q0 84 29 151.5t86 126.5q117 117 281 117 q162 0 276 -117q117 -116 117 -278z" />
<glyph unicode="q" horiz-adv-x="1368" d="M1235 -358v1433h-180v-194q-160 229 -430 229q-229 0 -383 -172q-154 -170 -154 -401q0 -233 152 -400q156 -174 385 -174q268 0 430 230v-551h180zM1055 537q0 -162 -117 -279q-113 -115 -276 -115q-166 0 -281 115q-115 119 -115 279q0 84 29 151.5t86 126.5 q117 117 281 117q162 0 276 -117q117 -116 117 -278z" />
<glyph unicode="r" horiz-adv-x="772" d="M702 911v195q-16 4 -34 4h-33q-199 0 -324 -158v123h-178v-1075h178v645q0 119 84 203t203 84q29 0 53 -5.5t51 -15.5z" />
<glyph unicode="s" horiz-adv-x="1124" d="M1010 295q0 201 -181 270q-10 4 -93 22l-242 50q-182 35 -183 143q0 80 90 121q68 31 162 31t160 -31q90 -41 90 -121h180q0 154 -143 248q-125 82 -287 82q-166 0 -287 -82q-143 -92 -143 -248q0 -203 180 -272q12 -4 96 -22l242 -50q180 -35 180 -141q0 -152 -268 -152 q-109 0 -170 27q-100 39 -100 125h-178q0 -158 149 -252q66 -39 139.5 -59.5t159.5 -20.5t159 20.5t138 59.5q150 94 150 252z" />
<glyph unicode="t" horiz-adv-x="749" d="M680 895v180h-215v250h-180v-250h-215v-180h215v-1253h180v1253h215z" />
<glyph unicode="u" horiz-adv-x="1179" d="M1047 0v1075h-181v-645q0 -119 -84 -203t-202 -84q-117 0 -201 84q-86 82 -86 203v645h-178v-645q0 -188 121 -324q127 -143 309 -143q195 0 321 158v-121h181z" />
<glyph unicode="v" horiz-adv-x="1148" d="M1106 1075h-195l-338 -837l-337 837h-193l434 -1075h193z" />
<glyph unicode="w" horiz-adv-x="1671" d="M1628 1075h-188l-254 -784l-256 784h-189l-254 -784l-256 784h-188l350 -1075h187l258 784l254 -784h188z" />
<glyph unicode="x" horiz-adv-x="1083" d="M1032 0l-381 537l381 538h-223l-268 -381l-267 381h-223l379 -538l-379 -537h223l267 379l268 -379h223z" />
<glyph unicode="y" horiz-adv-x="1148" d="M1106 1075h-195l-338 -837l-337 837h-193l434 -1075l-67 -166q-18 -49 -82 -49q-35 0 -90 18v-180q55 -18 90 -18q184 0 252 170z" />
<glyph unicode="z" horiz-adv-x="1196" d="M1081 0v178h-714l714 717v180h-966v-180h714l-714 -717v-178h966z" />
<glyph unicode="{" horiz-adv-x="821" d="M688 -180v180h-72q-25 0 -47 11.5t-39.5 28.5t-27.5 39.5t-10 45.5v287q0 68 -48 139q-51 76 -116 76q66 0 116 78q47 72 48 137v286q0 47 38.5 86t85.5 39h72v181h-90q-109 0 -199 -97q-88 -96 -88 -209v-305q0 -49 -35.5 -77.5t-89.5 -28.5h-53v-180h53q53 0 89 -29 t36 -78v-305q0 -113 88 -207q88 -98 199 -98h90z" />
<glyph unicode="|" d="M311 -180v1614h-178v-1614h178z" />
<glyph unicode="}" horiz-adv-x="821" d="M688 537v180h-53q-53 0 -90 28.5t-37 77.5v305q0 113 -88 209q-90 96 -199 97h-88v-181h72q23 0 45 -10t39.5 -27.5t29 -40t11.5 -47.5v-286q0 -66 47 -137q47 -78 117 -78q-68 0 -117 -76q-47 -72 -47 -139v-287q0 -47 -39 -86t-86 -39h-72v-180h88q109 0 199 98 q88 94 88 207v305q0 49 37 78t90 29h53z" />
<glyph unicode="~" horiz-adv-x="989" d="M856 582l-133 55q-27 -78 -80 -78q-57 0 -161.5 43t-159.5 43q-127 0 -189 -158l131 -53q31 76 82 76q53 0 162 -43q104 -43 160 -43q127 0 188 158z" />
<glyph unicode="&#xa1;" horiz-adv-x="516" d="M383 1128q0 53 -36 89t-89 36t-89 -35.5t-36 -89.5q0 -53 36 -88.5t89 -35.5t89 35.5t36 88.5zM348 -180l-37 1040h-106l-37 -1040h180z" />
<glyph unicode="&#xa2;" horiz-adv-x="1294" d="M1161 190l-151 97q-84 -102 -215 -133v768q131 -31 215 -134l149 99q-139 182 -364 217v186h-179v-186q-207 -35 -346 -195q-137 -156 -137 -372q0 -215 137 -373q143 -162 346 -193v-186h179v186q223 33 366 219zM616 154q-133 31 -219 139q-86 106 -86 244 q0 137 86 245.5t219 139.5v-768z" />
<glyph unicode="&#xa3;" horiz-adv-x="1300" d="M1167 1231q-66 111 -176 174t-239 63q-201 0 -344 -143q-141 -141 -142 -340v-178h-178v-180h178v-627h897v178h-717v449h359v180h-359v178q0 125 91 215q86 90 215 90q164 0 258 -143z" />
<glyph unicode="&#xa4;" horiz-adv-x="1632" d="M1499 1325q-195 143 -444 143q-244 0 -443 -143q-195 -143 -272 -375h-154l-53 -143h174q-2 -23 -3 -45.5t-1 -44.5q0 -23 1 -45.5t3 -44.5h-121l-53 -144h207q76 -229 272 -377q203 -143 443 -143q203 0 381 105v219q-168 -143 -381 -144q-170 0 -312 93 q-141 94 -211 247h662l51 144h-756q-8 41 -8 90t8 90h822l53 143h-832q72 154 211 246q139 94 312 94q213 0 381 -143z" />
<glyph unicode="&#xa5;" horiz-adv-x="1497" d="M1366 1434h-223l-393 -560l-396 560h-221l467 -664h-389v-143h448v-178h-448v-144h448v-305h179v305h448v144h-448v178h448v143h-389z" />
<glyph unicode="&#xa6;" d="M311 735v699h-178v-699h178zM311 -180v700h-178v-700h178z" />
<glyph unicode="&#xa7;" horiz-adv-x="1161" d="M1028 170q0 172 -135 250q135 82 135 233q0 199 -180 271q-10 4 -94 21l-244 50q-180 35 -180 144q0 80 90 121q68 31 160 30q94 0 161 -30q94 -41 90 -121h179q0 156 -144 247q-121 82 -286 82q-162 0 -287 -82q-143 -94 -143 -247q0 -176 133 -250q-133 -84 -133 -236 q0 -199 182 -272q12 -4 95 -22l241 -48q182 -35 182 -141q0 -152 -270 -152q-104 0 -172 27q-98 41 -97 125h-178q0 -160 150 -252q129 -80 297 -80q170 0 299 80q149 92 149 252zM850 653q0 -80 -90 -121q-72 -31 -162 -30q-94 0 -168 33q-100 41 -100 118q0 84 86 125 q68 31 159 31q92 0 170 -31q105 -47 105 -125z" />
<glyph unicode="&#xa8;" horiz-adv-x="802" d="M670 1343q0 39 -26 65t-64 26q-37 0 -62.5 -26t-25.5 -65q0 -37 25.5 -63.5t62.5 -26.5q39 0 64.5 26.5t25.5 63.5zM311 1343q0 39 -25.5 65t-64.5 26q-37 0 -62.5 -26t-25.5 -65q0 -37 25.5 -63.5t62.5 -26.5q39 0 64.5 26.5t25.5 63.5z" />
<glyph unicode="&#xa9;" horiz-adv-x="1394" d="M1262 565q0 231 -166 397t-400 166q-233 0 -399 -165q-164 -168 -164 -398q0 -231 164 -401q168 -164 399 -164t400 164q166 168 166 401zM1163 565q0 -195 -139 -329q-135 -137 -328 -138q-193 0 -329 138q-135 135 -136 329q0 188 136 328q141 137 329 137 q190 0 328 -137q139 -140 139 -328zM981 299l-63 61q-82 -82 -203 -81q-119 0 -203 83.5t-84 202.5q0 117 84 201q82 86 203 86q119 0 203 -84l63 63q-106 109 -266 109q-156 0 -266.5 -110.5t-110.5 -264.5q0 -158 111 -268q109 -109 266 -109t266 111z" />
<glyph unicode="&#xaa;" horiz-adv-x="1124" d="M993 627v807h-135v-146q-121 172 -321 172q-176 0 -289 -129q-115 -123 -115 -301q0 -176 115 -299q113 -131 289 -131q201 0 321 172v-145h135zM858 1030q0 -121 -88 -209q-86 -86 -207 -86q-123 0 -211 86q-86 88 -86 209q0 123 86 209q88 86 211 86q121 0 207 -86 q88 -86 88 -209z" />
<glyph unicode="&#xab;" horiz-adv-x="1464" d="M1331 121l-454 305l454 307l-78 119l-530 -354v-144l530 -354zM739 121l-454 305l454 307l-77 119l-529 -354v-144l529 -354z" />
<glyph unicode="&#xac;" horiz-adv-x="980" d="M850 287v321h-717v-143h574v-178h143z" />
<glyph unicode="&#xad;" horiz-adv-x="980" d="M850 465v143h-717v-143h717z" />
<glyph unicode="&#xae;" horiz-adv-x="1394" d="M1262 565q0 231 -166 397t-400 166q-233 0 -399 -165q-164 -168 -164 -398q0 -231 164 -401q168 -164 399 -164t400 164q166 168 166 401zM870 723q0 -51 -39.5 -83t-93.5 -32h-215v226h215q53 0 93 -31t40 -80zM1163 565q0 -199 -145 -338l-150 230q-39 61 -69 71 q72 16 117 69.5t45 125.5q0 84 -68 143q-70 57 -156 58h-305v-717h90v313h107q94 0 135 -63l162 -250h69q-131 -109 -299 -109q-193 0 -329 138q-135 135 -136 329q0 188 136 328q141 137 329 137q190 0 328 -137q139 -140 139 -328z" />
<glyph unicode="&#xaf;" horiz-adv-x="892" d="M893 1290v144h-893v-144h893z" />
<glyph unicode="&#x2c9;" horiz-adv-x="892" d="M893 1290v144h-893v-144h893z" />
<glyph unicode="&#xb0;" horiz-adv-x="659" d="M526 1237q0 82 -57 139.5t-139 57.5t-139.5 -57.5t-57.5 -139.5q0 -84 57.5 -141.5t139.5 -57.5t139 57.5t57 141.5zM455 1237q0 -53 -36 -90t-89 -37t-89 37t-36 90t35.5 89t89.5 36q53 0 89 -36t36 -89z" />
<glyph unicode="&#xb1;" horiz-adv-x="980" d="M850 645v143h-287v287h-143v-287h-287v-143h287v-287h143v287h287zM850 0v143h-717v-143h717z" />
<glyph unicode="&#xb2;" horiz-adv-x="802" d="M670 717v90h-422q33 61 149 131q78 43 123 72.5t60 42.5q90 78 90 180q0 98 -86 164q-78 55 -183 55q-109 0 -180 -51q-88 -57 -88 -160h88q0 61 60 96q45 25 114 25q74 0 123 -29q61 -35 62 -100q0 -86 -115 -164l-215 -133q-117 -92 -117 -219h537z" />
<glyph unicode="&#xb3;" horiz-adv-x="813" d="M680 932q0 131 -139 188q104 43 104 144q0 94 -82 145q-68 43 -170 43q-197 0 -241 -129l84 -31q25 70 157 70q162 0 162 -98q0 -49 -59 -78q-43 -20 -103 -21h-53v-90h53q76 0 129 -35q70 -41 70 -108q0 -74 -66 -111q-51 -33 -133 -33q-137 0 -184 84l-76 -45 q70 -129 260 -129q115 0 197 58q90 63 90 176z" />
<glyph unicode="&#xb4;" horiz-adv-x="550" d="M420 1434h-180l-107 -215h107z" />
<glyph unicode="&#xb5;" horiz-adv-x="1196" d="M1065 0v1075h-180v-645q0 -119 -84 -203t-203 -84t-203 84t-84 203v645h-178v-1433h178v479q102 -158 287 -158q188 0 287 158v-121h180z" />
<glyph unicode="&#x3bc;" horiz-adv-x="1196" d="M1065 0v1075h-180v-645q0 -119 -84 -203t-203 -84t-203 84t-84 203v645h-178v-1433h178v479q102 -158 287 -158q188 0 287 158v-121h180z" />
<glyph unicode="&#xb6;" horiz-adv-x="1501" d="M1368 1253v181h-788q-178 0 -310 -111q-137 -119 -137 -293q0 -176 137 -293q135 -111 310 -110v-985h180v1611h215v-1611h178v1611h215z" />
<glyph unicode="&#xb7;" horiz-adv-x="516" d="M383 537q0 53 -36 90t-89 37t-89 -37t-36 -90t36 -89t89 -36t89 36t36 89z" />
<glyph unicode="&#xb8;" horiz-adv-x="550" d="M420 -215q0 49 -33 89t-82 50l25 111h-72l-37 -160h55q35 0 62 -26.5t27 -63.5t-27 -63.5t-62 -26.5h-126l-17 -53h143q59 0 101.5 42t42.5 101z" />
<glyph unicode="&#xb9;" horiz-adv-x="544" d="M412 717v717h-90l-189 -191l57 -57l132 135v-604h90z" />
<glyph unicode="&#xba;" horiz-adv-x="1124" d="M993 1030q0 176 -127 303q-131 127 -303 127q-178 0 -305 -127q-125 -125 -125 -303q0 -180 125 -305t305 -125q176 0 303 125q127 127 127 305zM858 1030q0 -121 -88 -209q-86 -86 -207 -86q-123 0 -211 86q-86 88 -86 209q0 123 86 209q88 86 211 86q121 0 207 -86 q88 -86 88 -209z" />
<glyph unicode="&#xbb;" horiz-adv-x="1464" d="M1331 354v144l-528 354l-80 -119l457 -307l-457 -305l80 -121zM739 354v144l-528 354l-78 -119l455 -307l-455 -305l78 -121z" />
<glyph unicode="&#xbc;" horiz-adv-x="980" d="M604 860v574h-72l-153 -152l47 -45l106 104v-481h72zM850 680v72h-717v-72h717zM721 115v71h-72v387h-61l-324 -387v-71h314v-115h71v115h72zM578 186h-240l240 281v-281z" />
<glyph unicode="&#xbd;" horiz-adv-x="980" d="M604 860v574h-72l-153 -152l47 -45l106 104v-481h72zM850 680v72h-717v-72h717zM707 0v72h-338q31 53 120 106q119 68 146 90q72 61 72 144q0 78 -70 131q-59 45 -143 45q-82 0 -146 -41q-70 -45 -69 -127h71q0 53 47 74q39 23 92 22q55 0 97 -22q49 -29 49 -82 q0 -70 -94 -131l-86 -54l-84 -53q-92 -72 -92 -174h428z" />
<glyph unicode="&#xbe;" horiz-adv-x="980" d="M711 1032q0 106 -113 150q84 37 84 114q0 78 -64 117q-55 35 -137 35q-156 0 -192 -105l67 -24q18 57 125 57q129 0 129 -80q0 -37 -45 -59q-41 -18 -84 -18h-43v-72h43q61 0 105 -29q53 -33 53 -86q0 -59 -51 -90q-43 -25 -107 -24q-113 0 -145 67l-64 -35 q55 -104 209 -104q90 0 156 47q74 49 74 139zM850 680v72h-717v-72h717zM721 115v71h-72v387h-61l-324 -387v-71h314v-115h71v115h72zM578 186h-240l240 281v-281z" />
<glyph unicode="&#xbf;" horiz-adv-x="909" d="M707 1128q0 53 -37 89t-90 36t-89 -35.5t-36 -89.5q0 -53 35.5 -88.5t89.5 -35.5q53 0 90 35.5t37 88.5zM778 117h-180q-2 -61 -43 -107.5t-100 -46.5t-101.5 46t-42.5 108q0 94 90 174l82 66l82 67q88 92 88 215q0 14 -18 221h-109q-6 -59 -10 -104t-8 -76 q-18 -139 -119 -215l-84 -56l-86 -57q-86 -78 -86 -235q0 -135 92 -234q94 -98 230 -98q135 0 227 98q96 101 96 234z" />
<glyph unicode="&#xc0;" horiz-adv-x="1320" d="M713 1577l-107 215h-180l180 -215h107zM1278 0l-522 1434h-191l-522 -1434h190l117 322h617l118 -322h193zM903 502h-487l243 669z" />
<glyph unicode="&#xc1;" horiz-adv-x="1320" d="M893 1792h-180l-107 -215h107zM1278 0l-522 1434h-191l-522 -1434h190l117 322h617l118 -322h193zM903 502h-487l243 669z" />
<glyph unicode="&#xc2;" horiz-adv-x="1320" d="M874 1577l-143 215h-143l-144 -215h107l108 129l107 -129h108zM1278 0l-522 1434h-191l-522 -1434h190l117 322h617l118 -322h193zM903 502h-487l243 669z" />
<glyph unicode="&#xc3;" horiz-adv-x="1320" d="M932 1735l-98 53q-25 -86 -62 -86q-43 0 -121 47q-78 49 -121 49q-94 0 -141 -158l100 -55q25 86 62 86q43 0 119 -47q82 -47 123 -47q94 0 139 158zM1278 0l-522 1434h-191l-522 -1434h190l117 322h617l118 -322h193zM903 502h-487l243 669z" />
<glyph unicode="&#xc4;" horiz-adv-x="1320" d="M930 1667q0 37 -25.5 62.5t-64.5 25.5q-37 0 -62.5 -25.5t-25.5 -62.5q0 -39 25.5 -64.5t62.5 -25.5q39 0 64.5 25.5t25.5 64.5zM571 1667q0 37 -25.5 62.5t-64.5 25.5q-37 0 -62.5 -25.5t-25.5 -62.5q0 -39 25.5 -64.5t62.5 -25.5q39 0 64.5 25.5t25.5 64.5zM1278 0 l-522 1434h-191l-522 -1434h190l117 322h617l118 -322h193zM903 502h-487l243 669z" />
<glyph unicode="&#xc5;" horiz-adv-x="1320" d="M1278 0l-508 1397q86 57 86 162q0 82 -59 139q-55 57 -138 57q-82 0 -139 -57.5t-57 -138.5q0 -106 88 -164l-508 -1395h190l117 322h617l118 -322h193zM784 1559q0 -53 -35.5 -89t-89.5 -36q-53 0 -88.5 35.5t-35.5 89.5q0 53 35.5 88.5t88.5 35.5t89 -35.5t36 -88.5z M903 502h-487l243 669z" />
<glyph unicode="&#xc6;" horiz-adv-x="2041" d="M1911 0v178h-645v449h465v180h-465v446h645v181h-826v-908l-329 908h-191l-522 -1434h190l117 322h617l118 -322h826zM903 502h-487l243 669z" />
<glyph unicode="&#xc7;" horiz-adv-x="1486" d="M1372 184l-129 123q-168 -164 -403 -164q-236 0 -404 168q-170 168 -170 406t170 405q168 168 404 168q238 0 403 -166l129 125q-219 219 -532 219q-311 0 -533 -221q-219 -223 -219 -530q0 -291 193 -504q195 -215 481 -246l-29 -129h53q37 0 64 -26.5t27 -63.5 q0 -35 -27 -61.5t-64 -26.5h-124l-19 -55h143q59 0 101.5 42t42.5 101q0 51 -33 91t-82 50l16 74q322 0 541 221z" />
<glyph unicode="&#xc8;" horiz-adv-x="1267" d="M688 1577l-108 215h-179l179 -215h108zM1137 0v178h-826v449h645v180h-645v446h826v181h-1004v-1434h1004z" />
<glyph unicode="&#xc9;" horiz-adv-x="1267" d="M866 1792h-178l-108 -215h108zM1137 0v178h-826v449h645v180h-645v446h826v181h-1004v-1434h1004z" />
<glyph unicode="&#xca;" horiz-adv-x="1267" d="M850 1577l-143 215h-144l-143 -215h106l109 129l106 -129h109zM1137 0v178h-826v449h645v180h-645v446h826v181h-1004v-1434h1004z" />
<glyph unicode="&#xcb;" horiz-adv-x="1267" d="M903 1667q0 37 -25.5 62.5t-64.5 25.5q-37 0 -63.5 -25.5t-26.5 -62.5q0 -39 26.5 -64.5t63.5 -25.5q39 0 64.5 25.5t25.5 64.5zM545 1667q0 37 -25.5 62.5t-64.5 25.5q-37 0 -63.5 -25.5t-26.5 -62.5q0 -39 26.5 -64.5t63.5 -25.5q39 0 64.5 25.5t25.5 64.5zM1137 0v178 h-826v449h645v180h-645v446h826v181h-1004v-1434h1004z" />
<glyph unicode="&#xcc;" d="M276 1577l-108 215h-178l178 -215h108zM311 0v1434h-178v-1434h178z" />
<glyph unicode="&#xcd;" d="M455 1792h-179l-108 -215h108zM311 0v1434h-178v-1434h178z" />
<glyph unicode="&#xce;" d="M436 1577l-143 215h-143l-144 -215h109l106 129l109 -129h106zM311 0v1434h-178v-1434h178z" />
<glyph unicode="&#xcf;" d="M492 1667q0 37 -27 62.5t-64 25.5q-39 0 -64.5 -25.5t-25.5 -62.5q0 -39 25.5 -64.5t64.5 -25.5q37 0 64 25.5t27 64.5zM133 1667q0 37 -26.5 62.5t-63.5 25.5q-39 0 -64.5 -25.5t-25.5 -62.5q0 -39 25.5 -64.5t64.5 -25.5q37 0 63.5 25.5t26.5 64.5zM311 0v1434h-178 v-1434h178z" />
<glyph unicode="&#xd0;" horiz-adv-x="1636" d="M1522 717q0 295 -211 506t-506 211h-539v-627h-178v-143h178v-664h539q293 0 506 209q211 211 211 508zM1341 717q0 -223 -157.5 -381t-378.5 -158h-359v486h359v143h-359v446h359q223 0 379 -157q157 -156 157 -379z" />
<glyph unicode="&#xd1;" horiz-adv-x="1411" d="M979 1735l-98 53q-25 -86 -62 -86q-41 0 -123 47q-74 49 -118 49q-98 0 -142 -158l101 -55q20 86 59 86q43 0 121 -47t121 -47q96 0 141 158zM1280 0v1434h-180v-1112l-789 1112h-178v-1434h178v1110l789 -1110h180z" />
<glyph unicode="&#xd2;" horiz-adv-x="1681" d="M895 1577l-109 215h-178l178 -215h109zM1593 717q0 311 -221 532q-219 219 -532 219t-533 -219q-219 -223 -219 -532t219 -533q221 -221 533 -221q311 0 532 221.5t221 532.5zM1413 717q0 -238 -168 -406t-405 -168q-236 0 -404 168q-170 168 -170 406t170 405 q168 168 404 168q238 0 405.5 -167.5t167.5 -405.5z" />
<glyph unicode="&#xd3;" horiz-adv-x="1681" d="M1073 1792h-178l-109 -215h109zM1593 717q0 311 -221 532q-219 219 -532 219t-533 -219q-219 -223 -219 -532t219 -533q221 -221 533 -221q311 0 532 221.5t221 532.5zM1413 717q0 -238 -168 -406t-405 -168q-236 0 -404 168q-170 168 -170 406t170 405q168 168 404 168 q238 0 405.5 -167.5t167.5 -405.5z" />
<glyph unicode="&#xd4;" horiz-adv-x="1681" d="M1055 1577l-144 215h-143l-143 -215h108l107 129l108 -129h107zM1593 717q0 311 -221 532q-219 219 -532 219t-533 -219q-219 -223 -219 -532t219 -533q221 -221 533 -221q311 0 532 221.5t221 532.5zM1413 717q0 -238 -168 -406t-405 -168q-236 0 -404 168 q-170 168 -170 406t170 405q168 168 404 168q238 0 405.5 -167.5t167.5 -405.5z" />
<glyph unicode="&#xd5;" horiz-adv-x="1681" d="M1112 1735l-98 53q-25 -86 -62 -86q-43 0 -121 47q-78 49 -120 49q-94 0 -142 -158l101 -55q25 86 61 86q43 0 121 -47t121 -47q94 0 139 158zM1593 717q0 311 -221 532q-219 219 -532 219t-533 -219q-219 -223 -219 -532t219 -533q221 -221 533 -221q311 0 532 221.5 t221 532.5zM1413 717q0 -238 -168 -406t-405 -168q-236 0 -404 168q-170 168 -170 406t170 405q168 168 404 168q238 0 405.5 -167.5t167.5 -405.5z" />
<glyph unicode="&#xd6;" horiz-adv-x="1681" d="M1110 1667q0 37 -26.5 62.5t-63.5 25.5q-39 0 -64.5 -25.5t-25.5 -62.5q0 -39 25.5 -64.5t64.5 -25.5q37 0 63.5 25.5t26.5 64.5zM752 1667q0 37 -27 62.5t-63 25.5q-39 0 -65 -25.5t-26 -62.5q0 -39 26 -64.5t65 -25.5q37 0 63.5 25.5t26.5 64.5zM1593 717 q0 311 -221 532q-219 219 -532 219t-533 -219q-219 -223 -219 -532t219 -533q221 -221 533 -221q311 0 532 221.5t221 532.5zM1413 717q0 -238 -168 -406t-405 -168q-236 0 -404 168q-170 168 -170 406t170 405q168 168 404 168q238 0 405.5 -167.5t167.5 -405.5z" />
<glyph unicode="&#xd7;" horiz-adv-x="974" d="M842 285l-252 252l252 254l-103 102l-252 -254l-251 254l-103 -102l252 -254l-252 -252l103 -103l251 254l252 -254z" />
<glyph unicode="&#xd8;" horiz-adv-x="1681" d="M1638 1380l-55 54l-209 -189q-223 223 -534 223q-313 0 -533 -219q-219 -223 -219 -532q0 -268 168 -473l-213 -191l53 -53l211 188q221 -225 533 -225q311 0 532 221.5t221 532.5q0 268 -168 473zM1241 1126l-852 -761q-123 154 -123 352q0 238 170 405q168 168 404 168 q237 0 401 -164zM1413 717q0 -238 -168 -406t-405 -168q-236 0 -402 164l854 762q121 -155 121 -352z" />
<glyph unicode="&#xd9;" horiz-adv-x="1376" d="M741 1577l-106 215h-180l180 -215h106zM1262 537v897h-181v-897q0 -160 -114 -279q-115 -115 -279 -115q-166 0 -280 115q-115 119 -115 279v897h-178v-897q0 -236 168 -404q170 -170 405 -170q236 0 406 170q168 168 168 404z" />
<glyph unicode="&#xda;" horiz-adv-x="1376" d="M922 1792h-181l-106 -215h106zM1262 537v897h-181v-897q0 -160 -114 -279q-115 -115 -279 -115q-166 0 -280 115q-115 119 -115 279v897h-178v-897q0 -236 168 -404q170 -170 405 -170q236 0 406 170q168 168 168 404z" />
<glyph unicode="&#xdb;" horiz-adv-x="1376" d="M903 1577l-143 215h-144l-143 -215h107l108 129l107 -129h108zM1262 537v897h-181v-897q0 -160 -114 -279q-115 -115 -279 -115q-166 0 -280 115q-115 119 -115 279v897h-178v-897q0 -236 168 -404q170 -170 405 -170q236 0 406 170q168 168 168 404z" />
<glyph unicode="&#xdc;" horiz-adv-x="1376" d="M956 1667q0 37 -25.5 62.5t-64.5 25.5q-37 0 -62.5 -25.5t-25.5 -62.5q0 -39 25.5 -64.5t62.5 -25.5q39 0 64.5 25.5t25.5 64.5zM598 1667q0 37 -25.5 62.5t-64.5 25.5q-37 0 -62.5 -25.5t-25.5 -62.5q0 -39 25.5 -64.5t62.5 -25.5q39 0 64.5 25.5t25.5 64.5zM1262 537 v897h-181v-897q0 -160 -114 -279q-115 -115 -279 -115q-166 0 -280 115q-115 119 -115 279v897h-178v-897q0 -236 168 -404q170 -170 405 -170q236 0 406 170q168 168 168 404z" />
<glyph unicode="&#xdd;" horiz-adv-x="1318" d="M893 1792h-180l-107 -215h107zM1276 1434h-223l-394 -560l-395 560h-221l526 -748v-686h181v686z" />
<glyph unicode="&#xde;" horiz-adv-x="1259" d="M1190 717q0 172 -137 293q-135 111 -312 110h-430v314h-178v-1434h178v313h430q180 0 312 113q137 117 137 291zM1010 717q0 -102 -86 -166q-76 -57 -183 -57h-430v446h430q109 0 183 -59q86 -66 86 -164z" />
<glyph unicode="&#xdf;" horiz-adv-x="1323" d="M1208 430q0 131 -80 234q-70 90 -200 143q209 82 209 287q0 193 -158 290q-133 84 -336 84q-225 0 -371 -176q-139 -166 -139 -397v-1075h178v1075q0 156 88 270q94 125 244 125q313 0 313 -196q0 -98 -118 -154q-90 -45 -203 -45h-109v-178h109q145 0 260 -70 q133 -80 133 -217q0 -143 -131 -223q-106 -63 -262 -64q-72 0 -143 17l-43 -172q92 -25 186 -25q229 0 391 115q182 129 182 352z" />
<glyph unicode="&#xe0;" horiz-adv-x="1368" d="M715 1219l-107 215h-180l180 -215h107zM1235 0v1075h-180v-194q-160 229 -430 229q-229 0 -383 -172q-154 -170 -154 -401q0 -233 152 -400q156 -174 385 -174q268 0 430 230v-193h180zM1055 537q0 -162 -117 -279q-113 -115 -276 -115q-166 0 -281 115 q-115 119 -115 279q0 84 29 151.5t86 126.5q117 117 281 117q162 0 276 -117q117 -116 117 -278z" />
<glyph unicode="&#xe1;" horiz-adv-x="1368" d="M895 1434h-180l-107 -215h107zM1235 0v1075h-180v-194q-160 229 -430 229q-229 0 -383 -172q-154 -170 -154 -401q0 -233 152 -400q156 -174 385 -174q268 0 430 230v-193h180zM1055 537q0 -162 -117 -279q-113 -115 -276 -115q-166 0 -281 115q-115 119 -115 279 q0 84 29 151.5t86 126.5q117 117 281 117q162 0 276 -117q117 -116 117 -278z" />
<glyph unicode="&#xe2;" horiz-adv-x="1368" d="M877 1219l-144 215h-143l-144 -215h107l109 129l106 -129h109zM1235 0v1075h-180v-194q-160 229 -430 229q-229 0 -383 -172q-154 -170 -154 -401q0 -233 152 -400q156 -174 385 -174q268 0 430 230v-193h180zM1055 537q0 -162 -117 -279q-113 -115 -276 -115 q-166 0 -281 115q-115 119 -115 279q0 84 29 151.5t86 126.5q117 117 281 117q162 0 276 -117q117 -116 117 -278z" />
<glyph unicode="&#xe3;" horiz-adv-x="1368" d="M934 1376l-98 54q-25 -86 -62 -87q-41 0 -123 48q-74 49 -119 49q-94 0 -141 -158l101 -55q25 86 59 86q45 0 121 -47q78 -47 123 -47q94 -1 139 157zM1235 0v1075h-180v-194q-160 229 -430 229q-229 0 -383 -172q-154 -170 -154 -401q0 -233 152 -400q156 -174 385 -174 q268 0 430 230v-193h180zM1055 537q0 -162 -117 -279q-113 -115 -276 -115q-166 0 -281 115q-115 119 -115 279q0 84 29 151.5t86 126.5q117 117 281 117q162 0 276 -117q117 -116 117 -278z" />
<glyph unicode="&#xe4;" horiz-adv-x="1368" d="M930 1309q0 37 -25.5 62.5t-64.5 25.5q-37 0 -62.5 -25.5t-25.5 -62.5q0 -39 25.5 -64.5t62.5 -25.5q39 0 64.5 25.5t25.5 64.5zM571 1309q0 37 -25.5 62.5t-64.5 25.5q-37 0 -62.5 -25.5t-25.5 -62.5q0 -39 25.5 -64.5t62.5 -25.5q39 0 64.5 25.5t25.5 64.5zM1235 0 v1075h-180v-194q-160 229 -430 229q-229 0 -383 -172q-154 -170 -154 -401q0 -233 152 -400q156 -174 385 -174q268 0 430 230v-193h180zM1055 537q0 -162 -117 -279q-113 -115 -276 -115q-166 0 -281 115q-115 119 -115 279q0 84 29 151.5t86 126.5q117 117 281 117 q162 0 276 -117q117 -116 117 -278z" />
<glyph unicode="&#xe5;" horiz-adv-x="1368" d="M858 1415q0 84 -57.5 140.5t-138.5 56.5q-84 0 -140.5 -56.5t-56.5 -140.5q0 -82 56.5 -139t140.5 -57q82 0 139 57t57 139zM1235 0v1075h-180v-194q-160 229 -430 229q-229 0 -383 -172q-154 -170 -154 -401q0 -233 152 -400q156 -174 385 -174q268 0 430 230v-193h180z M786 1415q0 -53 -35.5 -89t-88.5 -36t-89 36t-36 89t35.5 89t89.5 36q53 0 88.5 -36t35.5 -89zM1055 537q0 -162 -117 -279q-113 -115 -276 -115q-166 0 -281 115q-115 119 -115 279q0 84 29 151.5t86 126.5q117 117 281 117q162 0 276 -117q117 -116 117 -278z" />
<glyph unicode="&#xe6;" horiz-adv-x="2289" d="M2202 537q0 231 -150 399q-156 174 -383 174q-279 0 -434 -229v194h-180v-194q-160 229 -430 229q-227 0 -383 -172q-154 -170 -154 -401q0 -233 152 -400q160 -174 385 -174q272 0 430 230v-193h180v193q158 -229 420 -230q258 0 430 227l-152 97q-121 -143 -305 -144 q-135 0 -246 86q-106 84 -137 220h950q7 45 7 88zM2013 627h-768q31 135 137 219q111 86 246 86t244 -86q110 -86 141 -219zM1055 537q0 -162 -117 -279q-113 -115 -276 -115q-166 0 -281 115q-115 119 -115 279q0 84 29 151.5t86 126.5q117 117 281 117q162 0 276 -117 q117 -116 117 -278z" />
<glyph unicode="&#xe7;" horiz-adv-x="1230" d="M1116 190l-149 97q-125 -143 -305 -144q-166 0 -281 115q-115 119 -115 279q0 84 29 151.5t86 126.5q117 117 281 117q180 0 305 -144l149 97q-80 106 -200.5 165.5t-253.5 59.5q-238 0 -406 -168t-168 -405q0 -213 141 -375q72 -84 159 -130t194 -63l-29 -131h55 q35 0 61.5 -26.5t26.5 -63.5q0 -35 -26.5 -61.5t-61.5 -26.5h-127l-16 -55h143q59 0 101.5 42t42.5 101q0 51 -33 91t-82 50l14 74q293 0 465 227z" />
<glyph unicode="&#xe8;" horiz-adv-x="1323" d="M715 1219l-107 215h-180l180 -215h107zM1235 537q0 238 -168 405q-170 168 -405 168q-238 0 -406 -168t-168 -405q0 -236 168 -404q170 -170 406 -170q133 0 253.5 60.5t200.5 166.5l-149 97q-121 -143 -305 -144q-135 0 -246 86q-111 88 -137 220h948q8 41 8 88z M1044 627h-765q27 131 137 219q111 86 246 86t243 -86q108 -84 139 -219z" />
<glyph unicode="&#xe9;" horiz-adv-x="1323" d="M895 1434h-180l-107 -215h107zM1235 537q0 238 -168 405q-170 168 -405 168q-238 0 -406 -168t-168 -405q0 -236 168 -404q170 -170 406 -170q133 0 253.5 60.5t200.5 166.5l-149 97q-121 -143 -305 -144q-135 0 -246 86q-111 88 -137 220h948q8 41 8 88zM1044 627h-765 q27 131 137 219q111 86 246 86t243 -86q108 -84 139 -219z" />
<glyph unicode="&#xea;" horiz-adv-x="1323" d="M877 1219l-144 215h-143l-144 -215h107l109 129l106 -129h109zM1235 537q0 238 -168 405q-170 168 -405 168q-238 0 -406 -168t-168 -405q0 -236 168 -404q170 -170 406 -170q133 0 253.5 60.5t200.5 166.5l-149 97q-121 -143 -305 -144q-135 0 -246 86q-111 88 -137 220 h948q8 41 8 88zM1044 627h-765q27 131 137 219q111 86 246 86t243 -86q108 -84 139 -219z" />
<glyph unicode="&#xeb;" horiz-adv-x="1323" d="M930 1309q0 37 -25.5 62.5t-64.5 25.5q-37 0 -62.5 -25.5t-25.5 -62.5q0 -39 25.5 -64.5t62.5 -25.5q39 0 64.5 25.5t25.5 64.5zM571 1309q0 37 -25.5 62.5t-64.5 25.5q-37 0 -62.5 -25.5t-25.5 -62.5q0 -39 25.5 -64.5t62.5 -25.5q39 0 64.5 25.5t25.5 64.5zM1235 537 q0 238 -168 405q-170 168 -405 168q-238 0 -406 -168t-168 -405q0 -236 168 -404q170 -170 406 -170q133 0 253.5 60.5t200.5 166.5l-149 97q-121 -143 -305 -144q-135 0 -246 86q-111 88 -137 220h948q8 41 8 88zM1044 627h-765q27 131 137 219q111 86 246 86t243 -86 q108 -84 139 -219z" />
<glyph unicode="&#xec;" d="M276 1219l-108 215h-178l178 -215h108zM311 0v1075h-178v-1075h178z" />
<glyph unicode="&#xed;" d="M455 1434h-179l-108 -215h108zM311 0v1075h-178v-1075h178z" />
<glyph unicode="&#xee;" d="M436 1219l-143 215h-143l-144 -215h109l106 129l109 -129h106zM311 0v1075h-178v-1075h178z" />
<glyph unicode="&#xef;" d="M492 1309q0 37 -27 62.5t-64 25.5q-39 0 -64.5 -25.5t-25.5 -62.5q0 -39 25.5 -64.5t64.5 -25.5q37 0 64 25.5t27 64.5zM133 1309q0 37 -26.5 62.5t-63.5 25.5q-39 0 -64.5 -25.5t-25.5 -62.5q0 -39 25.5 -64.5t64.5 -25.5q37 0 63.5 25.5t26.5 64.5zM311 0v1075h-178 v-1075h178z" />
<glyph unicode="&#xf0;" horiz-adv-x="1474" d="M1413 1182v143h-178v109h-180v-109h-178v-143h178v-301q-160 229 -430 229q-227 0 -383 -172q-154 -170 -154 -401q0 -236 168 -404q170 -170 406 -170q231 0 405 170q168 168 168 404v645h178zM1055 537q0 -162 -117 -279q-113 -115 -276 -115q-166 0 -281 115 q-115 119 -115 279q0 84 29 151.5t86 126.5q117 117 281 117q162 0 276 -117q117 -116 117 -278z" />
<glyph unicode="&#xf1;" horiz-adv-x="1179" d="M870 1376l-98 54q-25 -86 -61 -87q-43 0 -121 48q-78 49 -121 49q-94 0 -141 -158l100 -55q25 86 61 86q43 0 119 -47q82 -47 123 -47q94 -1 139 157zM1065 0v645q0 184 -121 322q-125 143 -309 143q-199 0 -324 -158v123h-178v-1075h178v645q0 119 84 203t203 84 t203 -84t84 -203v-645h180z" />
<glyph unicode="&#xf2;" horiz-adv-x="1323" d="M715 1219l-107 215h-180l180 -215h107zM1235 537q0 238 -168 405q-170 168 -405 168q-238 0 -406 -168t-168 -405q0 -236 168 -404q170 -170 406 -170q231 0 405 170q168 168 168 404zM1055 537q0 -162 -117 -279q-113 -115 -276 -115q-166 0 -281 115q-115 119 -115 279 q0 84 29 151.5t86 126.5q117 117 281 117q162 0 276 -117q117 -116 117 -278z" />
<glyph unicode="&#xf3;" horiz-adv-x="1323" d="M895 1434h-180l-107 -215h107zM1235 537q0 238 -168 405q-170 168 -405 168q-238 0 -406 -168t-168 -405q0 -236 168 -404q170 -170 406 -170q231 0 405 170q168 168 168 404zM1055 537q0 -162 -117 -279q-113 -115 -276 -115q-166 0 -281 115q-115 119 -115 279 q0 84 29 151.5t86 126.5q117 117 281 117q162 0 276 -117q117 -116 117 -278z" />
<glyph unicode="&#xf4;" horiz-adv-x="1323" d="M877 1219l-144 215h-143l-144 -215h107l109 129l106 -129h109zM1235 537q0 238 -168 405q-170 168 -405 168q-238 0 -406 -168t-168 -405q0 -236 168 -404q170 -170 406 -170q231 0 405 170q168 168 168 404zM1055 537q0 -162 -117 -279q-113 -115 -276 -115 q-166 0 -281 115q-115 119 -115 279q0 84 29 151.5t86 126.5q117 117 281 117q162 0 276 -117q117 -116 117 -278z" />
<glyph unicode="&#xf5;" horiz-adv-x="1323" d="M934 1376l-98 54q-25 -86 -62 -87q-41 0 -123 48q-74 49 -119 49q-94 0 -141 -158l101 -55q25 86 59 86q45 0 121 -47q78 -47 123 -47q94 -1 139 157zM1235 537q0 238 -168 405q-170 168 -405 168q-238 0 -406 -168t-168 -405q0 -236 168 -404q170 -170 406 -170 q231 0 405 170q168 168 168 404zM1055 537q0 -162 -117 -279q-113 -115 -276 -115q-166 0 -281 115q-115 119 -115 279q0 84 29 151.5t86 126.5q117 117 281 117q162 0 276 -117q117 -116 117 -278z" />
<glyph unicode="&#xf6;" horiz-adv-x="1323" d="M930 1309q0 37 -25.5 62.5t-64.5 25.5q-37 0 -62.5 -25.5t-25.5 -62.5q0 -39 25.5 -64.5t62.5 -25.5q39 0 64.5 25.5t25.5 64.5zM571 1309q0 37 -25.5 62.5t-64.5 25.5q-37 0 -62.5 -25.5t-25.5 -62.5q0 -39 25.5 -64.5t62.5 -25.5q39 0 64.5 25.5t25.5 64.5zM1235 537 q0 238 -168 405q-170 168 -405 168q-238 0 -406 -168t-168 -405q0 -236 168 -404q170 -170 406 -170q231 0 405 170q168 168 168 404zM1055 537q0 -162 -117 -279q-113 -115 -276 -115q-166 0 -281 115q-115 119 -115 279q0 84 29 151.5t86 126.5q117 117 281 117 q162 0 276 -117q117 -116 117 -278z" />
<glyph unicode="&#xf7;" horiz-adv-x="980" d="M616 950q0 53 -35.5 89t-88.5 36t-90 -35.5t-37 -89.5q0 -53 36.5 -90t90.5 -37q53 0 88.5 37t35.5 90zM850 465v143h-717v-143h717zM616 125q0 53 -35.5 89t-88.5 36t-90 -36t-37 -89t36.5 -89t90.5 -36q53 0 88.5 36t35.5 89z" />
<glyph unicode="&#xf8;" horiz-adv-x="1323" d="M1280 1022l-55 53l-156 -135q-170 170 -407 170q-238 0 -406 -168t-168 -405q0 -195 117 -344l-162 -140l53 -53l156 135q168 -172 410 -172q231 0 405 170q168 168 168 404q0 193 -117 346zM934 823l-594 -514q-74 109 -74 228q0 84 29 151.5t86 126.5q117 117 281 117 q153 0 272 -109zM1055 537q0 -162 -117 -279q-113 -115 -276 -115q-162 0 -273 109l592 514q74 -108 74 -229z" />
<glyph unicode="&#xf9;" horiz-adv-x="1179" d="M635 1219l-109 215h-178l178 -215h109zM1047 0v1075h-181v-645q0 -119 -84 -203t-202 -84q-117 0 -201 84q-86 82 -86 203v645h-178v-645q0 -188 121 -324q127 -143 309 -143q195 0 321 158v-121h181z" />
<glyph unicode="&#xfa;" horiz-adv-x="1179" d="M813 1434h-178l-109 -215h109zM1047 0v1075h-181v-645q0 -119 -84 -203t-202 -84q-117 0 -201 84q-86 82 -86 203v645h-178v-645q0 -188 121 -324q127 -143 309 -143q195 0 321 158v-121h181z" />
<glyph unicode="&#xfb;" horiz-adv-x="1179" d="M795 1219l-144 215h-143l-143 -215h108l107 129l108 -129h107zM1047 0v1075h-181v-645q0 -119 -84 -203t-202 -84q-117 0 -201 84q-86 82 -86 203v645h-178v-645q0 -188 121 -324q127 -143 309 -143q195 0 321 158v-121h181z" />
<glyph unicode="&#xfc;" horiz-adv-x="1179" d="M850 1309q0 37 -26.5 62.5t-63.5 25.5q-39 0 -64.5 -25.5t-25.5 -62.5q0 -39 25.5 -64.5t64.5 -25.5q37 0 63.5 25.5t26.5 64.5zM492 1309q0 37 -27 62.5t-64 25.5q-39 0 -64.5 -25.5t-25.5 -62.5q0 -39 25.5 -64.5t64.5 -25.5q37 0 64 25.5t27 64.5zM1047 0v1075h-181 v-645q0 -119 -84 -203t-202 -84q-117 0 -201 84q-86 82 -86 203v645h-178v-645q0 -188 121 -324q127 -143 309 -143q195 0 321 158v-121h181z" />
<glyph unicode="&#xfd;" horiz-adv-x="1148" d="M807 1434h-180l-107 -215h107zM1106 1075h-195l-338 -837l-337 837h-193l434 -1075l-67 -166q-18 -49 -82 -49q-35 0 -90 18v-180q55 -18 90 -18q184 0 252 170z" />
<glyph unicode="&#xfe;" horiz-adv-x="1368" d="M1280 537q0 229 -156 401q-152 172 -383 172q-268 0 -430 -229v553h-178v-1792h178v551q164 -229 430 -230q231 0 385 174q154 169 154 400zM1100 537q0 -162 -117 -279q-113 -115 -276 -115q-166 0 -281 115q-115 119 -115 279q0 84 29 151.5t86 126.5q117 117 281 117 q162 0 276 -117q117 -116 117 -278z" />
<glyph unicode="&#xff;" horiz-adv-x="1148" d="M844 1309q0 37 -25.5 62.5t-64.5 25.5q-37 0 -62.5 -25.5t-25.5 -62.5q0 -39 25.5 -64.5t62.5 -25.5q39 0 64.5 25.5t25.5 64.5zM485 1309q0 37 -25.5 62.5t-64.5 25.5q-37 0 -62.5 -25.5t-25.5 -62.5q0 -39 25.5 -64.5t62.5 -25.5q39 0 64.5 25.5t25.5 64.5zM1106 1075 h-195l-338 -837l-337 837h-193l434 -1075l-67 -166q-18 -49 -82 -49q-35 0 -90 18v-180q55 -18 90 -18q184 0 252 170z" />
<glyph unicode="&#x152;" horiz-adv-x="2371" d="M2238 0v178h-645v449h465v180h-465v446h645v181h-825v-230q-221 264 -573 264q-313 0 -533 -219q-219 -223 -219 -532t219 -533q221 -221 533 -221q350 0 573 266v-229h825zM1413 717q0 -238 -168 -406t-405 -168q-236 0 -404 168q-170 168 -170 406t170 405 q168 168 404 168q238 0 405.5 -167.5t167.5 -405.5z" />
<glyph unicode="&#x153;" horiz-adv-x="2289" d="M2202 537q0 238 -168 405.5t-406 167.5q-147 0 -275 -70.5t-208 -195.5q-80 125 -208 195.5t-275 70.5q-238 0 -406 -168t-168 -405q0 -236 168 -404q170 -170 406 -170q147 0 275 71.5t208 196.5q80 -125 208 -196.5t275 -71.5q135 0 255 60.5t202 166.5l-152 97 q-121 -143 -305 -144q-135 0 -246 86q-106 84 -137 220h950q7 45 7 88zM2013 627h-768q31 135 137 219q111 86 246 86t244 -86q110 -86 141 -219zM1055 537q0 -162 -117 -279q-113 -115 -276 -115q-166 0 -281 115q-115 119 -115 279q0 84 29 151.5t86 126.5 q117 117 281 117q162 0 276 -117q117 -116 117 -278z" />
<glyph unicode="&#x178;" horiz-adv-x="1318" d="M928 1667q0 37 -25.5 62.5t-64.5 25.5q-37 0 -62.5 -25.5t-25.5 -62.5q0 -39 25.5 -64.5t62.5 -25.5q39 0 64.5 25.5t25.5 64.5zM569 1667q0 37 -25.5 62.5t-64.5 25.5q-37 0 -62.5 -25.5t-25.5 -62.5q0 -39 25.5 -64.5t62.5 -25.5q39 0 64.5 25.5t25.5 64.5zM1276 1434 h-223l-394 -560l-395 560h-221l526 -748v-686h181v686z" />
<glyph unicode="&#x2c6;" horiz-adv-x="694" d="M563 1219l-143 215h-144l-143 -215h107l108 129l107 -129h108z" />
<glyph unicode="&#x2dc;" horiz-adv-x="808" d="M676 1370l-98 55q-25 -86 -62 -86q-45 0 -123 45q-74 49 -119 50q-96 0 -141 -158l100 -53q25 86 60 86q47 0 121 -49q78 -47 123 -48q92 0 139 158z" />
<glyph unicode="&#x2000;" horiz-adv-x="899" />
<glyph unicode="&#x2001;" horiz-adv-x="1798" />
<glyph unicode="&#x2002;" horiz-adv-x="899" />
<glyph unicode="&#x2003;" horiz-adv-x="1798" />
<glyph unicode="&#x2004;" horiz-adv-x="598" />
<glyph unicode="&#x2005;" horiz-adv-x="448" />
<glyph unicode="&#x2006;" horiz-adv-x="299" />
<glyph unicode="&#x2007;" horiz-adv-x="299" />
<glyph unicode="&#x2008;" horiz-adv-x="223" />
<glyph unicode="&#x2009;" horiz-adv-x="358" />
<glyph unicode="&#x200a;" horiz-adv-x="98" />
<glyph unicode="&#x2010;" horiz-adv-x="980" d="M850 465v143h-717v-143h717z" />
<glyph unicode="&#x2011;" horiz-adv-x="980" d="M850 465v143h-717v-143h717z" />
<glyph unicode="&#x2012;" horiz-adv-x="980" d="M850 465v143h-717v-143h717z" />
<glyph unicode="&#x2013;" horiz-adv-x="802" d="M670 465v143h-537v-143h537z" />
<glyph unicode="&#x2014;" horiz-adv-x="1161" d="M1028 465v143h-895v-143h895z" />
<glyph unicode="&#x2018;" horiz-adv-x="516" d="M383 932v250h-178q0 76 30.5 128t75.5 52v72q-72 0 -127 -74q-51 -72 -51 -178v-250h250z" />
<glyph unicode="&#x2019;" horiz-adv-x="516" d="M383 1182v252h-250v-252h178q0 -74 -30.5 -126t-75.5 -52v-72q72 0 125 74q53 72 53 176z" />
<glyph unicode="&#x201a;" horiz-adv-x="516" d="M383 0v250h-250v-250h178q0 -74 -30.5 -127t-75.5 -53v-72q70 0 125 74q53 76 53 178z" />
<glyph unicode="&#x201c;" horiz-adv-x="909" d="M778 932v250h-180q0 76 32 128t77 52v72q-76 0 -127 -74q-53 -76 -54 -178v-250h252zM383 932v250h-178q0 76 30.5 128t75.5 52v72q-72 0 -127 -74q-51 -72 -51 -178v-250h250z" />
<glyph unicode="&#x201d;" horiz-adv-x="909" d="M778 1182v252h-252v-252h181q0 -74 -32 -126t-77 -52v-72q76 0 125 74q55 70 55 176zM383 1182v252h-250v-252h178q0 -74 -30.5 -126t-75.5 -52v-72q72 0 125 74q53 72 53 176z" />
<glyph unicode="&#x201e;" horiz-adv-x="909" d="M778 0v250h-252v-250h181q0 -74 -32 -127t-77 -53v-72q74 0 125 74q55 74 55 178zM383 0v250h-250v-250h178q0 -74 -30.5 -127t-75.5 -53v-72q70 0 125 74q53 76 53 178z" />
<glyph unicode="&#x2022;" horiz-adv-x="909" d="M778 537q0 133 -96 229q-94 94 -227 94q-129 0 -228 -94q-94 -94 -94 -229q0 -133 94 -228q98 -94 228 -94q135 0 227 92q96 97 96 230z" />
<glyph unicode="&#x2026;" horiz-adv-x="1447" d="M1315 125q0 53 -36 89t-89 36t-89 -36t-36 -89t36 -89t89 -36t89 36t36 89zM850 125q0 53 -37 89t-90 36t-89 -36t-36 -89t36 -89t89 -36t90 36t37 89zM383 125q0 53 -36 89t-89 36t-89 -36t-36 -89t36 -89t89 -36t89 36t36 89z" />
<glyph unicode="&#x202f;" horiz-adv-x="358" />
<glyph unicode="&#x2039;" horiz-adv-x="765" d="M633 387l-348 236l348 233l-80 121l-420 -283v-143l420 -285z" />
<glyph unicode="&#x203a;" horiz-adv-x="765" d="M633 551v143l-422 283l-78 -121l346 -233l-346 -236l78 -121z" />
<glyph unicode="&#x205f;" horiz-adv-x="448" />
<glyph unicode="&#x20ac;" horiz-adv-x="1632" d="M1499 1325q-195 143 -444 143q-244 0 -443 -143q-195 -143 -272 -375h-154l-53 -143h174q-2 -23 -3 -45.5t-1 -44.5q0 -23 1 -45.5t3 -44.5h-121l-53 -144h207q76 -229 272 -377q203 -143 443 -143q203 0 381 105v219q-168 -143 -381 -144q-170 0 -312 93 q-141 94 -211 247h662l51 144h-756q-8 41 -8 90t8 90h822l53 143h-832q72 154 211 246q139 94 312 94q213 0 381 -143z" />
<glyph unicode="&#x2122;" horiz-adv-x="1568" d="M1438 680v754h-174l-201 -553l-201 553h-729v-125h232v-629h127v629h196v-629h125v520l188 -520h123l187 518v-518h127z" />
<glyph unicode="&#xe000;" horiz-adv-x="1075" d="M0 1075h1075v-1075h-1075v1075z" />
<glyph unicode="&#xfb01;" horiz-adv-x="1116" d="M1020 1343q0 53 -37 89t-90 36t-89 -35.5t-36 -89.5q0 -53 36 -88.5t89 -35.5t90 35.5t37 88.5zM983 0v1075h-178v-1075h178zM602 1434q-59 35 -137 34q-113 0 -191 -77q-80 -78 -79 -191v-233h-107v-179h107v-1146h180v1146h178v179h-178v233q0 37 26.5 64.5t63.5 27.5 q29 0 55 -20z" />
<glyph unicode="&#xfb02;" horiz-adv-x="1116" d="M983 0v1434h-178v-1434h178zM602 1434q-59 35 -137 34q-113 0 -191 -77q-80 -78 -79 -191v-233h-107v-179h107v-1146h180v1146h178v179h-178v233q0 37 26.5 64.5t63.5 27.5q29 0 55 -20z" />
<glyph unicode="&#xfb03;" horiz-adv-x="1787" d="M1691 1343q0 53 -37 89t-90 36t-89 -35.5t-36 -89.5q0 -53 36 -88.5t89 -35.5t90 35.5t37 88.5zM1654 0v1075h-178v-1075h178zM1274 1434q-59 35 -137 34q-113 0 -191 -77q-80 -78 -79 -191v-233h-107v-179h107v-1146h180v1146h178v179h-178v233q0 37 26.5 64.5 t63.5 27.5q29 0 55 -20zM602 1434q-59 35 -137 34q-113 0 -191 -77q-80 -78 -79 -191v-233h-107v-179h107v-1146h180v1146h178v179h-178v233q0 37 26.5 64.5t63.5 27.5q29 0 55 -20z" />
<glyph unicode="&#xfb04;" horiz-adv-x="1787" d="M1654 0v1434h-178v-1434h178zM1274 1434q-59 35 -137 34q-113 0 -191 -77q-80 -78 -79 -191v-233h-107v-179h107v-1146h180v1146h178v179h-178v233q0 37 26.5 64.5t63.5 27.5q29 0 55 -20zM602 1434q-59 35 -137 34q-113 0 -191 -77q-80 -78 -79 -191v-233h-107v-179h107 v-1146h180v1146h178v179h-178v233q0 37 26.5 64.5t63.5 27.5q29 0 55 -20z" />
</font>
</defs>
</svg>
